<svg width="57" height="57" viewBox="0 0 57 57" fill="none" xmlns="http://www.w3.org/2000/svg">
<rect width="57" height="57" rx="8" fill="#FBCB1C"/>
<g clip-path="url(#clip0_91_64)">
<path d="M28.5003 13.9165C22.8566 13.9165 18.292 18.4811 18.292 24.1248C18.292 31.7811 28.5003 43.0832 28.5003 43.0832C28.5003 43.0832 38.7087 31.7811 38.7087 24.1248C38.7087 18.4811 34.1441 13.9165 28.5003 13.9165ZM28.5003 27.7707C26.4878 27.7707 24.8545 26.1373 24.8545 24.1248C24.8545 22.1123 26.4878 20.479 28.5003 20.479C30.5128 20.479 32.1462 22.1123 32.1462 24.1248C32.1462 26.1373 30.5128 27.7707 28.5003 27.7707Z" fill="white"/>
</g>
<defs>
<clipPath id="clip0_91_64">
<rect x="11" y="11" width="35" height="35" rx="8" fill="white"/>
</clipPath>
</defs>
</svg>
