<svg width="197" height="277" viewBox="0 0 197 277" fill="none" xmlns="http://www.w3.org/2000/svg">
<mask id="mask0_109_1344" style="mask-type:luminance" maskUnits="userSpaceOnUse" x="54" y="34" width="16" height="59">
<path d="M54 34.0061H69.4641V92.1092H54V34.0061Z" fill="white"/>
</mask>
<g mask="url(#mask0_109_1344)">
<path d="M60.9922 40.2679V85.9003" stroke="#FBCB1C" stroke-width="16" stroke-linecap="square" stroke-linejoin="round"/>
</g>
<mask id="mask1_109_1344" style="mask-type:luminance" maskUnits="userSpaceOnUse" x="54" y="0" width="16" height="59">
<path d="M54 0H69.4641V58.3283H54V0Z" fill="white"/>
</mask>
<g mask="url(#mask1_109_1344)">
<path d="M60.9922 4.42319V52.2953" stroke="#FBCB1C" stroke-width="16" stroke-linecap="square" stroke-linejoin="round"/>
</g>
<mask id="mask2_109_1344" style="mask-type:luminance" maskUnits="userSpaceOnUse" x="54" y="33" width="68" height="13">
<path d="M54 33.4176H121.562V45.5788H54V33.4176Z" fill="white"/>
</mask>
<g mask="url(#mask2_109_1344)">
<path d="M60.9922 39.4894H113.453" stroke="#FBCB1C" stroke-width="16" stroke-linecap="square" stroke-linejoin="round"/>
</g>
<mask id="mask3_109_1344" style="mask-type:luminance" maskUnits="userSpaceOnUse" x="54" y="59" width="68" height="77">
<path d="M54 59.2291H121.562V135.124H54V59.2291Z" fill="white"/>
</mask>
<g mask="url(#mask3_109_1344)">
<path d="M113.453 131.54H94.5643C93.4641 131.54 92.3662 131.499 91.273 131.418C90.1798 131.337 89.0937 131.218 88.0145 131.056C86.9354 130.896 85.8704 130.695 84.8194 130.456C83.7661 130.216 82.7316 129.939 81.7158 129.624C80.7 129.307 79.7077 128.955 78.7389 128.566C77.7677 128.177 76.827 127.755 75.9121 127.296C74.9995 126.838 74.1175 126.348 73.2659 125.825C72.4167 125.301 71.6027 124.748 70.8262 124.166C70.0473 123.582 69.3107 122.971 68.614 122.334C67.9149 121.697 67.2604 121.036 66.6505 120.35C66.0405 119.663 65.4752 118.958 64.9568 118.231C64.4383 117.503 63.9691 116.759 63.5492 115.997C63.127 115.235 62.7563 114.459 62.4373 113.671C62.1182 112.881 61.8531 112.082 61.6373 111.273C61.4238 110.465 61.262 109.651 61.1541 108.829C61.0461 108.009 60.9922 107.186 60.9922 106.362V65.4628" stroke="#FBCB1C" stroke-width="16" stroke-linecap="square" stroke-linejoin="round"/>
</g>
<mask id="mask4_109_1344" style="mask-type:luminance" maskUnits="userSpaceOnUse" x="128" y="0" width="16" height="136">
<path d="M143.555 0H128.766V135.124H143.555V0Z" fill="white"/>
</mask>
<g mask="url(#mask4_109_1344)">
<path d="M136.949 4.43201V131.531" stroke="#0399FA" stroke-width="193" stroke-linecap="square" stroke-linejoin="round"/>
</g>
<path d="M20.0642 167.932V168.572H12.3442V193.052H9.46422V168.572H1.74422V167.932H20.0642ZM41.963 193.052L37.603 182.972H27.843L23.323 193.052H22.443L33.843 167.452H34.043L45.043 193.052H41.963ZM28.123 182.292H37.323L32.803 171.772L28.123 182.292ZM54.2727 191.172C55.6727 192.252 57.5927 193.412 61.0327 193.412C64.2327 193.412 67.1927 191.492 67.1927 187.612C67.1927 179.692 54.3927 183.052 54.3927 174.092C54.3927 169.092 58.8327 167.172 61.9927 167.172C65.1927 167.172 67.5927 168.652 67.5927 168.652L67.6327 169.492C67.6327 169.492 65.4327 167.852 62.0327 167.852C58.5927 167.852 56.6327 170.172 56.6327 173.012C56.6327 180.292 69.4727 177.652 69.4727 186.612C69.4727 191.052 65.3527 194.052 61.0327 194.052C56.7127 194.052 54.2727 192.092 54.2727 192.092V191.172ZM79.3958 193.052V167.932H82.2358V193.052H79.3958ZM85.3558 178.532L97.7558 193.052H93.9958L82.9158 180.092L94.7558 167.932H95.6758L85.3558 178.532ZM122.075 167.932H124.955V193.052H122.075V180.252H110.315V193.052H107.475V167.932H110.315V179.612H122.075V167.932ZM135.76 193.052V167.932H138.6V193.052H135.76ZM170.535 167.932H171.455L160.055 193.572H159.815L148.855 167.932H151.935L161.055 189.252L170.535 167.932ZM193.849 168.572H183.969V179.612H192.769V180.252H183.969V192.412H193.849V193.052H181.129V167.932H181.249H193.849V168.572Z" fill="black"/>
<path d="M8.79566 230.388V231.318H1.64066V220.668H8.66066V221.598H2.69066V225.438H7.89566V226.323H2.69066V230.388H8.79566ZM22.498 231.318H21.478V226.953C21.478 226.043 21.333 225.373 21.043 224.943C20.753 224.513 20.323 224.298 19.753 224.298C19.163 224.298 18.633 224.508 18.163 224.928C17.703 225.348 17.378 225.888 17.188 226.548V231.318H16.168V226.953C16.168 226.033 16.028 225.363 15.748 224.943C15.468 224.513 15.038 224.298 14.458 224.298C13.878 224.298 13.353 224.503 12.883 224.913C12.413 225.323 12.083 225.863 11.893 226.533V231.318H10.873V223.503H11.803V225.273C12.133 224.663 12.553 224.193 13.063 223.863C13.583 223.533 14.158 223.368 14.788 223.368C15.438 223.368 15.963 223.553 16.363 223.923C16.763 224.293 17.008 224.778 17.098 225.378C17.458 224.718 17.888 224.218 18.388 223.878C18.898 223.538 19.473 223.368 20.113 223.368C20.553 223.368 20.923 223.448 21.223 223.608C21.533 223.768 21.778 223.998 21.958 224.298C22.148 224.588 22.283 224.943 22.363 225.363C22.453 225.773 22.498 226.233 22.498 226.743V231.318ZM29.0222 231.468C28.3722 231.468 27.7872 231.298 27.2672 230.958C26.7572 230.618 26.3522 230.198 26.0522 229.698V234.513H25.0322V223.503H25.9472V225.018C26.2572 224.528 26.6722 224.133 27.1922 223.833C27.7122 223.523 28.2672 223.368 28.8572 223.368C29.3972 223.368 29.8922 223.483 30.3422 223.713C30.7922 223.933 31.1822 224.233 31.5122 224.613C31.8422 224.993 32.0972 225.428 32.2772 225.918C32.4672 226.398 32.5622 226.898 32.5622 227.418C32.5622 228.148 32.4122 228.823 32.1122 229.443C31.8222 230.053 31.4122 230.543 30.8822 230.913C30.3522 231.283 29.7322 231.468 29.0222 231.468ZM28.7372 230.568C29.1672 230.568 29.5522 230.483 29.8922 230.313C30.2322 230.133 30.5222 229.893 30.7622 229.593C31.0122 229.293 31.2022 228.958 31.3322 228.588C31.4622 228.208 31.5272 227.818 31.5272 227.418C31.5272 226.998 31.4522 226.598 31.3022 226.218C31.1622 225.838 30.9572 225.503 30.6872 225.213C30.4172 224.923 30.1072 224.693 29.7572 224.523C29.4072 224.353 29.0272 224.268 28.6172 224.268C28.3572 224.268 28.0872 224.318 27.8072 224.418C27.5272 224.518 27.2572 224.663 26.9972 224.853C26.7472 225.033 26.5372 225.238 26.3672 225.468C26.1972 225.698 26.0922 225.943 26.0522 226.203V228.603C26.2122 228.973 26.4272 229.308 26.6972 229.608C26.9672 229.898 27.2772 230.133 27.6272 230.313C27.9872 230.483 28.3572 230.568 28.7372 230.568ZM37.995 231.468C37.435 231.468 36.915 231.363 36.435 231.153C35.965 230.933 35.555 230.638 35.205 230.268C34.865 229.888 34.6 229.458 34.41 228.978C34.22 228.488 34.125 227.973 34.125 227.433C34.125 226.873 34.22 226.353 34.41 225.873C34.6 225.383 34.87 224.953 35.22 224.583C35.57 224.203 35.98 223.908 36.45 223.698C36.93 223.478 37.45 223.368 38.01 223.368C38.57 223.368 39.085 223.478 39.555 223.698C40.025 223.908 40.435 224.203 40.785 224.583C41.135 224.953 41.405 225.383 41.595 225.873C41.785 226.353 41.88 226.873 41.88 227.433C41.88 227.973 41.785 228.488 41.595 228.978C41.405 229.458 41.135 229.888 40.785 230.268C40.445 230.638 40.035 230.933 39.555 231.153C39.085 231.363 38.565 231.468 37.995 231.468ZM35.16 227.448C35.16 228.028 35.285 228.558 35.535 229.038C35.795 229.508 36.14 229.883 36.57 230.163C37 230.433 37.475 230.568 37.995 230.568C38.515 230.568 38.99 230.428 39.42 230.148C39.85 229.868 40.195 229.488 40.455 229.008C40.715 228.518 40.845 227.988 40.845 227.418C40.845 226.838 40.715 226.308 40.455 225.828C40.195 225.348 39.85 224.968 39.42 224.688C38.99 224.408 38.515 224.268 37.995 224.268C37.475 224.268 37 224.413 36.57 224.703C36.15 224.993 35.81 225.378 35.55 225.858C35.29 226.328 35.16 226.858 35.16 227.448ZM53.5373 223.503H54.5423L51.1823 231.318H50.2973L48.6623 227.433L47.0423 231.318H46.1573L42.7973 223.503H43.7873L46.6373 230.268L48.0773 226.743L46.7573 223.518H47.6723L48.6623 226.053L49.6673 223.518H50.5673L49.2623 226.743L50.7023 230.268L53.5373 223.503ZM59.3857 231.468C58.8257 231.468 58.3057 231.363 57.8257 231.153C57.3457 230.933 56.9307 230.638 56.5807 230.268C56.2307 229.888 55.9557 229.453 55.7557 228.963C55.5657 228.473 55.4707 227.948 55.4707 227.388C55.4707 226.658 55.6357 225.988 55.9657 225.378C56.3057 224.768 56.7707 224.283 57.3607 223.923C57.9507 223.553 58.6207 223.368 59.3707 223.368C60.1407 223.368 60.8107 223.553 61.3807 223.923C61.9607 224.293 62.4157 224.783 62.7457 225.393C63.0757 225.993 63.2407 226.653 63.2407 227.373C63.2407 227.453 63.2407 227.533 63.2407 227.613C63.2407 227.683 63.2357 227.738 63.2257 227.778H56.5357C56.5857 228.338 56.7407 228.838 57.0007 229.278C57.2707 229.708 57.6157 230.053 58.0357 230.313C58.4657 230.563 58.9307 230.688 59.4307 230.688C59.9407 230.688 60.4207 230.558 60.8707 230.298C61.3307 230.038 61.6507 229.698 61.8307 229.278L62.7157 229.518C62.5557 229.888 62.3107 230.223 61.9807 230.523C61.6507 230.823 61.2607 231.058 60.8107 231.228C60.3707 231.388 59.8957 231.468 59.3857 231.468ZM56.5057 227.043H62.2807C62.2407 226.473 62.0857 225.973 61.8157 225.543C61.5557 225.113 61.2107 224.778 60.7807 224.538C60.3607 224.288 59.8957 224.163 59.3857 224.163C58.8757 224.163 58.4107 224.288 57.9907 224.538C57.5707 224.778 57.2257 225.118 56.9557 225.558C56.6957 225.988 56.5457 226.483 56.5057 227.043ZM69.0895 224.403C68.4095 224.423 67.8095 224.613 67.2895 224.973C66.7795 225.333 66.4195 225.828 66.2095 226.458V231.318H65.1895V223.503H66.1495V225.378C66.4195 224.828 66.7745 224.383 67.2145 224.043C67.6645 223.703 68.1395 223.513 68.6395 223.473C68.7395 223.463 68.8245 223.458 68.8945 223.458C68.9745 223.458 69.0395 223.463 69.0895 223.473V224.403ZM70.8232 231.318V223.503H71.8432V231.318H70.8232ZM70.8232 221.868V220.368H71.8432V221.868H70.8232ZM81.0348 231.318H80.0148V226.953C80.0148 226.033 79.8798 225.363 79.6098 224.943C79.3398 224.513 78.9148 224.298 78.3348 224.298C77.9348 224.298 77.5398 224.398 77.1498 224.598C76.7598 224.788 76.4148 225.053 76.1148 225.393C75.8248 225.723 75.6148 226.103 75.4848 226.533V231.318H74.4648V223.503H75.3948V225.273C75.6048 224.893 75.8798 224.563 76.2198 224.283C76.5598 223.993 76.9448 223.768 77.3748 223.608C77.8048 223.448 78.2498 223.368 78.7098 223.368C79.1398 223.368 79.5048 223.448 79.8048 223.608C80.1048 223.768 80.3448 223.998 80.5248 224.298C80.7048 224.588 80.8348 224.943 80.9148 225.363C80.9948 225.773 81.0348 226.233 81.0348 226.743V231.318ZM86.72 231.423C86.19 231.423 85.7 231.313 85.25 231.093C84.8 230.873 84.41 230.578 84.08 230.208C83.76 229.828 83.51 229.398 83.33 228.918C83.15 228.438 83.06 227.943 83.06 227.433C83.06 226.883 83.145 226.368 83.315 225.888C83.495 225.398 83.745 224.963 84.065 224.583C84.395 224.203 84.78 223.908 85.22 223.698C85.66 223.478 86.15 223.368 86.69 223.368C87.36 223.368 87.94 223.538 88.43 223.878C88.93 224.218 89.35 224.638 89.69 225.138V223.503H90.605V231.348C90.605 232.068 90.43 232.673 90.08 233.163C89.74 233.663 89.275 234.038 88.685 234.288C88.105 234.538 87.47 234.663 86.78 234.663C85.89 234.663 85.17 234.503 84.62 234.183C84.07 233.863 83.62 233.433 83.27 232.893L83.9 232.398C84.21 232.888 84.62 233.253 85.13 233.493C85.65 233.733 86.2 233.853 86.78 233.853C87.29 233.853 87.755 233.758 88.175 233.568C88.605 233.388 88.945 233.113 89.195 232.743C89.455 232.373 89.585 231.908 89.585 231.348V229.803C89.285 230.293 88.875 230.688 88.355 230.988C87.835 231.278 87.29 231.423 86.72 231.423ZM87.005 230.568C87.315 230.568 87.61 230.513 87.89 230.403C88.18 230.293 88.445 230.148 88.685 229.968C88.925 229.778 89.125 229.568 89.285 229.338C89.445 229.108 89.545 228.873 89.585 228.633V226.218C89.435 225.838 89.22 225.503 88.94 225.213C88.66 224.913 88.34 224.683 87.98 224.523C87.63 224.353 87.265 224.268 86.885 224.268C86.445 224.268 86.05 224.363 85.7 224.553C85.36 224.733 85.07 224.978 84.83 225.288C84.6 225.588 84.42 225.928 84.29 226.308C84.16 226.688 84.095 227.068 84.095 227.448C84.095 227.868 84.17 228.268 84.32 228.648C84.47 229.018 84.675 229.353 84.935 229.653C85.205 229.943 85.515 230.168 85.865 230.328C86.225 230.488 86.605 230.568 87.005 230.568ZM97.1733 220.668L100.653 226.398L104.163 220.668H105.303L101.178 227.358V231.318H100.128V227.328L96.0183 220.668H97.1733ZM109.002 231.468C108.442 231.468 107.922 231.363 107.442 231.153C106.972 230.933 106.562 230.638 106.212 230.268C105.872 229.888 105.607 229.458 105.417 228.978C105.227 228.488 105.132 227.973 105.132 227.433C105.132 226.873 105.227 226.353 105.417 225.873C105.607 225.383 105.877 224.953 106.227 224.583C106.577 224.203 106.987 223.908 107.457 223.698C107.937 223.478 108.457 223.368 109.017 223.368C109.577 223.368 110.092 223.478 110.562 223.698C111.032 223.908 111.442 224.203 111.792 224.583C112.142 224.953 112.412 225.383 112.602 225.873C112.792 226.353 112.887 226.873 112.887 227.433C112.887 227.973 112.792 228.488 112.602 228.978C112.412 229.458 112.142 229.888 111.792 230.268C111.452 230.638 111.042 230.933 110.562 231.153C110.092 231.363 109.572 231.468 109.002 231.468ZM106.167 227.448C106.167 228.028 106.292 228.558 106.542 229.038C106.802 229.508 107.147 229.883 107.577 230.163C108.007 230.433 108.482 230.568 109.002 230.568C109.522 230.568 109.997 230.428 110.427 230.148C110.857 229.868 111.202 229.488 111.462 229.008C111.722 228.518 111.852 227.988 111.852 227.418C111.852 226.838 111.722 226.308 111.462 225.828C111.202 225.348 110.857 224.968 110.427 224.688C109.997 224.408 109.522 224.268 109.002 224.268C108.482 224.268 108.007 224.413 107.577 224.703C107.157 224.993 106.817 225.378 106.557 225.858C106.297 226.328 106.167 226.858 106.167 227.448ZM114.893 228.093V223.503H115.913V227.913C115.913 228.803 116.063 229.468 116.363 229.908C116.673 230.348 117.128 230.568 117.728 230.568C118.128 230.568 118.513 230.483 118.883 230.313C119.263 230.133 119.598 229.883 119.888 229.563C120.178 229.233 120.398 228.853 120.548 228.423V223.503H121.568V230.088C121.568 230.228 121.598 230.333 121.658 230.403C121.718 230.463 121.808 230.498 121.928 230.508V231.318C121.808 231.328 121.713 231.333 121.643 231.333C121.573 231.343 121.508 231.348 121.448 231.348C121.248 231.328 121.073 231.248 120.923 231.108C120.783 230.968 120.708 230.798 120.698 230.598L120.668 229.548C120.328 230.148 119.863 230.618 119.273 230.958C118.693 231.298 118.063 231.468 117.383 231.468C116.563 231.468 115.943 231.183 115.523 230.613C115.103 230.043 114.893 229.203 114.893 228.093ZM128.149 224.403C127.469 224.423 126.869 224.613 126.349 224.973C125.839 225.333 125.479 225.828 125.269 226.458V231.318H124.249V223.503H125.209V225.378C125.479 224.828 125.834 224.383 126.274 224.043C126.724 223.703 127.199 223.513 127.699 223.473C127.799 223.463 127.884 223.458 127.954 223.458C128.034 223.458 128.099 223.463 128.149 223.473V224.403ZM141.949 228.573C141.949 229.103 141.814 229.578 141.544 229.998C141.274 230.408 140.909 230.733 140.449 230.973C139.999 231.203 139.504 231.318 138.964 231.318H133.939V220.668H139.069C139.569 220.668 139.999 220.803 140.359 221.073C140.729 221.333 141.009 221.673 141.199 222.093C141.399 222.503 141.499 222.933 141.499 223.383C141.499 223.913 141.364 224.403 141.094 224.853C140.824 225.303 140.449 225.638 139.969 225.858C140.579 226.038 141.059 226.373 141.409 226.863C141.769 227.353 141.949 227.923 141.949 228.573ZM140.899 228.393C140.899 228.033 140.819 227.703 140.659 227.403C140.499 227.093 140.279 226.843 139.999 226.653C139.729 226.463 139.419 226.368 139.069 226.368H134.989V230.403H138.964C139.324 230.403 139.649 230.308 139.939 230.118C140.229 229.928 140.459 229.683 140.629 229.383C140.809 229.073 140.899 228.743 140.899 228.393ZM134.989 221.583V225.513H138.649C138.999 225.513 139.309 225.423 139.579 225.243C139.849 225.053 140.064 224.808 140.224 224.508C140.384 224.208 140.464 223.888 140.464 223.548C140.464 223.188 140.389 222.863 140.239 222.573C140.089 222.273 139.884 222.033 139.624 221.853C139.364 221.673 139.069 221.583 138.739 221.583H134.989ZM144.02 228.093V223.503H145.04V227.913C145.04 228.803 145.19 229.468 145.49 229.908C145.8 230.348 146.255 230.568 146.855 230.568C147.255 230.568 147.64 230.483 148.01 230.313C148.39 230.133 148.725 229.883 149.015 229.563C149.305 229.233 149.525 228.853 149.675 228.423V223.503H150.695V230.088C150.695 230.228 150.725 230.333 150.785 230.403C150.845 230.463 150.935 230.498 151.055 230.508V231.318C150.935 231.328 150.84 231.333 150.77 231.333C150.7 231.343 150.635 231.348 150.575 231.348C150.375 231.328 150.2 231.248 150.05 231.108C149.91 230.968 149.835 230.798 149.825 230.598L149.795 229.548C149.455 230.148 148.99 230.618 148.4 230.958C147.82 231.298 147.19 231.468 146.51 231.468C145.69 231.468 145.07 231.183 144.65 230.613C144.23 230.043 144.02 229.203 144.02 228.093ZM155.941 231.468C155.301 231.468 154.706 231.363 154.156 231.153C153.606 230.943 153.131 230.623 152.731 230.193L153.151 229.473C153.591 229.883 154.031 230.183 154.471 230.373C154.921 230.553 155.396 230.643 155.896 230.643C156.506 230.643 157.001 230.523 157.381 230.283C157.761 230.033 157.951 229.678 157.951 229.218C157.951 228.908 157.856 228.673 157.666 228.513C157.486 228.343 157.221 228.208 156.871 228.108C156.531 227.998 156.121 227.883 155.641 227.763C155.101 227.613 154.646 227.458 154.276 227.298C153.916 227.128 153.641 226.918 153.451 226.668C153.271 226.408 153.181 226.073 153.181 225.663C153.181 225.153 153.306 224.733 153.556 224.403C153.816 224.063 154.166 223.808 154.606 223.638C155.056 223.458 155.556 223.368 156.106 223.368C156.706 223.368 157.236 223.463 157.696 223.653C158.156 223.843 158.531 224.108 158.821 224.448L158.326 225.138C158.046 224.818 157.711 224.583 157.321 224.433C156.941 224.273 156.516 224.193 156.046 224.193C155.726 224.193 155.421 224.238 155.131 224.328C154.841 224.408 154.601 224.548 154.411 224.748C154.231 224.938 154.141 225.203 154.141 225.543C154.141 225.823 154.211 226.043 154.351 226.203C154.491 226.353 154.701 226.483 154.981 226.593C155.261 226.693 155.606 226.803 156.016 226.923C156.606 227.083 157.121 227.248 157.561 227.418C158.001 227.578 158.341 227.788 158.581 228.048C158.821 228.308 158.941 228.673 158.941 229.143C158.941 229.873 158.666 230.443 158.116 230.853C157.566 231.263 156.841 231.468 155.941 231.468ZM161.002 231.318V223.503H162.022V231.318H161.002ZM161.002 221.868V220.368H162.022V221.868H161.002ZM171.214 231.318H170.194V226.953C170.194 226.033 170.059 225.363 169.789 224.943C169.519 224.513 169.094 224.298 168.514 224.298C168.114 224.298 167.719 224.398 167.329 224.598C166.939 224.788 166.594 225.053 166.294 225.393C166.004 225.723 165.794 226.103 165.664 226.533V231.318H164.644V223.503H165.574V225.273C165.784 224.893 166.059 224.563 166.399 224.283C166.739 223.993 167.124 223.768 167.554 223.608C167.984 223.448 168.429 223.368 168.889 223.368C169.319 223.368 169.684 223.448 169.984 223.608C170.284 223.768 170.524 223.998 170.704 224.298C170.884 224.588 171.014 224.943 171.094 225.363C171.174 225.773 171.214 226.233 171.214 226.743V231.318ZM177.139 231.468C176.579 231.468 176.059 231.363 175.579 231.153C175.099 230.933 174.684 230.638 174.334 230.268C173.984 229.888 173.709 229.453 173.509 228.963C173.319 228.473 173.224 227.948 173.224 227.388C173.224 226.658 173.389 225.988 173.719 225.378C174.059 224.768 174.524 224.283 175.114 223.923C175.704 223.553 176.374 223.368 177.124 223.368C177.894 223.368 178.564 223.553 179.134 223.923C179.714 224.293 180.169 224.783 180.499 225.393C180.829 225.993 180.994 226.653 180.994 227.373C180.994 227.453 180.994 227.533 180.994 227.613C180.994 227.683 180.989 227.738 180.979 227.778H174.289C174.339 228.338 174.494 228.838 174.754 229.278C175.024 229.708 175.369 230.053 175.789 230.313C176.219 230.563 176.684 230.688 177.184 230.688C177.694 230.688 178.174 230.558 178.624 230.298C179.084 230.038 179.404 229.698 179.584 229.278L180.469 229.518C180.309 229.888 180.064 230.223 179.734 230.523C179.404 230.823 179.014 231.058 178.564 231.228C178.124 231.388 177.649 231.468 177.139 231.468ZM174.259 227.043H180.034C179.994 226.473 179.839 225.973 179.569 225.543C179.309 225.113 178.964 224.778 178.534 224.538C178.114 224.288 177.649 224.163 177.139 224.163C176.629 224.163 176.164 224.288 175.744 224.538C175.324 224.778 174.979 225.118 174.709 225.558C174.449 225.988 174.299 226.483 174.259 227.043ZM185.507 231.468C184.867 231.468 184.272 231.363 183.722 231.153C183.172 230.943 182.697 230.623 182.297 230.193L182.717 229.473C183.157 229.883 183.597 230.183 184.037 230.373C184.487 230.553 184.962 230.643 185.462 230.643C186.072 230.643 186.567 230.523 186.947 230.283C187.327 230.033 187.517 229.678 187.517 229.218C187.517 228.908 187.422 228.673 187.232 228.513C187.052 228.343 186.787 228.208 186.437 228.108C186.097 227.998 185.687 227.883 185.207 227.763C184.667 227.613 184.212 227.458 183.842 227.298C183.482 227.128 183.207 226.918 183.017 226.668C182.837 226.408 182.747 226.073 182.747 225.663C182.747 225.153 182.872 224.733 183.122 224.403C183.382 224.063 183.732 223.808 184.172 223.638C184.622 223.458 185.122 223.368 185.672 223.368C186.272 223.368 186.802 223.463 187.262 223.653C187.722 223.843 188.097 224.108 188.387 224.448L187.892 225.138C187.612 224.818 187.277 224.583 186.887 224.433C186.507 224.273 186.082 224.193 185.612 224.193C185.292 224.193 184.987 224.238 184.697 224.328C184.407 224.408 184.167 224.548 183.977 224.748C183.797 224.938 183.707 225.203 183.707 225.543C183.707 225.823 183.777 226.043 183.917 226.203C184.057 226.353 184.267 226.483 184.547 226.593C184.827 226.693 185.172 226.803 185.582 226.923C186.172 227.083 186.687 227.248 187.127 227.418C187.567 227.578 187.907 227.788 188.147 228.048C188.387 228.308 188.507 228.673 188.507 229.143C188.507 229.873 188.232 230.443 187.682 230.853C187.132 231.263 186.407 231.468 185.507 231.468ZM193.133 231.468C192.493 231.468 191.898 231.363 191.348 231.153C190.798 230.943 190.323 230.623 189.923 230.193L190.343 229.473C190.783 229.883 191.223 230.183 191.663 230.373C192.113 230.553 192.588 230.643 193.088 230.643C193.698 230.643 194.193 230.523 194.573 230.283C194.953 230.033 195.143 229.678 195.143 229.218C195.143 228.908 195.048 228.673 194.858 228.513C194.678 228.343 194.413 228.208 194.063 228.108C193.723 227.998 193.313 227.883 192.833 227.763C192.293 227.613 191.838 227.458 191.468 227.298C191.108 227.128 190.833 226.918 190.643 226.668C190.463 226.408 190.373 226.073 190.373 225.663C190.373 225.153 190.498 224.733 190.748 224.403C191.008 224.063 191.358 223.808 191.798 223.638C192.248 223.458 192.748 223.368 193.298 223.368C193.898 223.368 194.428 223.463 194.888 223.653C195.348 223.843 195.723 224.108 196.013 224.448L195.518 225.138C195.238 224.818 194.903 224.583 194.513 224.433C194.133 224.273 193.708 224.193 193.238 224.193C192.918 224.193 192.613 224.238 192.323 224.328C192.033 224.408 191.793 224.548 191.603 224.748C191.423 224.938 191.333 225.203 191.333 225.543C191.333 225.823 191.403 226.043 191.543 226.203C191.683 226.353 191.893 226.483 192.173 226.593C192.453 226.693 192.798 226.803 193.208 226.923C193.798 227.083 194.313 227.248 194.753 227.418C195.193 227.578 195.533 227.788 195.773 228.048C196.013 228.308 196.133 228.673 196.133 229.143C196.133 229.873 195.858 230.443 195.308 230.853C194.758 231.263 194.033 231.468 193.133 231.468Z" fill="black"/>
</svg>
