<svg width="50" height="50" viewBox="0 0 50 50" fill="none" xmlns="http://www.w3.org/2000/svg">
<g filter="url(#filter0_d_109_1300)">
<path d="M44.611 21.083H43V21H25V29H36.303C34.654 33.657 30.223 37 25 37C18.373 37 13 31.627 13 25C13 18.373 18.373 13 25 13C28.059 13 30.842 14.154 32.961 16.039L38.618 10.382C35.046 7.053 30.268 5 25 5C13.955 5 5 13.955 5 25C5 36.045 13.955 45 25 45C36.045 45 45 36.045 45 25C45 23.659 44.862 22.35 44.611 21.083Z" fill="#FFC107"/>
<path d="M7.30469 15.691L13.8757 20.51C15.6537 16.108 19.9597 13 24.9987 13C28.0577 13 30.8407 14.154 32.9597 16.039L38.6167 10.382C35.0447 7.053 30.2667 5 24.9987 5C17.3167 5 10.6547 9.337 7.30469 15.691Z" fill="#FF3D00"/>
<path d="M25.0003 44.9997C30.1663 44.9997 34.8603 43.0227 38.4093 39.8077L32.2193 34.5697C30.1439 36.1481 27.6078 37.0018 25.0003 36.9997C19.7983 36.9997 15.3813 33.6827 13.7173 29.0537L7.19531 34.0787C10.5053 40.5557 17.2273 44.9997 25.0003 44.9997Z" fill="#4CAF50"/>
<path d="M44.611 21.083H43V21H25V29H36.303C35.5142 31.2164 34.0934 33.1532 32.216 34.571L32.219 34.569L38.409 39.807C37.971 40.205 45 35 45 25C45 23.659 44.862 22.35 44.611 21.083Z" fill="#1976D2"/>
</g>
<defs>
<filter id="filter0_d_109_1300" x="0" y="0" width="50" height="50" filterUnits="userSpaceOnUse" color-interpolation-filters="sRGB">
<feFlood flood-opacity="0" result="BackgroundImageFix"/>
<feColorMatrix in="SourceAlpha" type="matrix" values="0 0 0 0 0 0 0 0 0 0 0 0 0 0 0 0 0 0 127 0" result="hardAlpha"/>
<feOffset/>
<feGaussianBlur stdDeviation="2.5"/>
<feComposite in2="hardAlpha" operator="out"/>
<feColorMatrix type="matrix" values="0 0 0 0 0 0 0 0 0 0 0 0 0 0 0 0 0 0 0.25 0"/>
<feBlend mode="normal" in2="BackgroundImageFix" result="effect1_dropShadow_109_1300"/>
<feBlend mode="normal" in="SourceGraphic" in2="effect1_dropShadow_109_1300" result="shape"/>
</filter>
</defs>
</svg>
