<svg width="57" height="57" viewBox="0 0 57 57" fill="none" xmlns="http://www.w3.org/2000/svg">
<rect width="57" height="57" rx="8" fill="#FBCB1C"/>
<g clip-path="url(#clip0_91_70)">
<path d="M35.7911 12.4731L21.2077 12.4585C19.6036 12.4585 18.3057 13.771 18.3057 15.3752V41.6252C18.3057 43.2293 19.6036 44.5418 21.2077 44.5418H35.7911C37.3952 44.5418 38.7077 43.2293 38.7077 41.6252V15.3752C38.7077 13.771 37.3952 12.4731 35.7911 12.4731ZM35.7911 38.7085H21.2077V18.2918H35.7911V38.7085ZM29.6661 30.2793V32.8314L34.3327 28.471L29.6661 24.1252V26.6043C25.1307 27.2314 23.3223 30.3377 22.6661 33.4585C24.2848 31.271 26.4286 30.2793 29.6661 30.2793Z" fill="white"/>
</g>
<defs>
<clipPath id="clip0_91_70">
<rect width="35" height="35" fill="white" transform="translate(11 11)"/>
</clipPath>
</defs>
</svg>
