<svg width="1558" height="116" viewBox="0 0 1558 116" fill="none" xmlns="http://www.w3.org/2000/svg">
<path d="M0 115.239C0 83.4554 25.766 57.6895 57.5499 57.6895H115.693C115.693 89.4734 89.9271 115.239 58.1432 115.239H0Z" fill="#1B1B1B"/>
<path d="M288.343 115.239C288.343 83.4554 314.109 57.6895 345.893 57.6895H404.036C404.036 89.4734 378.27 115.239 346.486 115.239H288.343Z" fill="#1B1B1B"/>
<path d="M577.279 115.239C577.279 83.4554 603.045 57.6895 634.829 57.6895H692.972C692.972 89.4734 667.206 115.239 635.422 115.239H577.279Z" fill="#1B1B1B"/>
<path d="M0.59375 0.138672C32.3777 0.138672 58.1436 25.9046 58.1436 57.6886H0.59375V0.138672Z" fill="#FBCB1C"/>
<path d="M288.938 57.6895C288.937 25.9055 314.703 0.139571 346.487 0.13957L346.487 57.6895L288.938 57.6895Z" fill="#FBCB1C"/>
<path d="M577.872 57.6895C577.872 25.9055 603.638 0.139571 635.422 0.13957L635.422 57.6895L577.872 57.6895Z" fill="#FBCB1C"/>
<path d="M115.693 0.138672L115.693 0.732006C115.693 32.1882 90.193 57.6886 58.7368 57.6886L58.7368 0.138669L115.693 0.138672Z" fill="#0399FA"/>
<path d="M404.036 0.138672L404.036 0.732006C404.036 32.1882 378.536 57.6886 347.08 57.6886L347.08 0.138669L404.036 0.138672Z" fill="#0399FA"/>
<path d="M692.973 0.138672L692.973 0.732006C692.973 32.1882 667.472 57.6886 636.016 57.6886L636.016 0.138669L692.973 0.138672Z" fill="#0399FA"/>
<path d="M115.693 57.6895C115.693 25.9055 141.459 0.139575 173.243 0.139573L173.243 57.6895L115.693 57.6895Z" fill="#FBCB1C"/>
<path d="M404.036 57.6895C404.036 25.9055 429.802 0.139575 461.586 0.139573L461.586 57.6895L404.036 57.6895Z" fill="#FBCB1C"/>
<path d="M692.973 57.6895C692.973 25.9055 718.739 0.139575 750.523 0.139573L750.523 57.6895L692.973 57.6895Z" fill="#FBCB1C"/>
<path d="M173.243 115.238C173.243 83.4544 199.009 57.6884 230.793 57.6884L230.793 115.238L173.243 115.238Z" fill="#FBCB1C"/>
<path d="M461.586 115.238C461.586 83.4544 487.352 57.6884 519.136 57.6884L519.136 115.238L461.586 115.238Z" fill="#FBCB1C"/>
<path d="M750.521 115.238C750.521 83.4544 776.287 57.6884 808.071 57.6884L808.071 115.238L750.521 115.238Z" fill="#FBCB1C"/>
<path d="M230.793 57.6895C262.577 57.6895 288.343 83.4554 288.343 115.239C256.559 115.239 230.793 89.4734 230.793 57.6895Z" fill="#0399FA"/>
<path d="M519.137 57.6895C550.921 57.6895 576.687 83.4554 576.687 115.239C544.903 115.239 519.137 89.4734 519.137 57.6895Z" fill="#0399FA"/>
<path d="M808.071 57.6895C839.855 57.6895 865.621 83.4554 865.621 115.239C833.837 115.239 808.071 89.4734 808.071 57.6895Z" fill="#0399FA"/>
<path d="M230.793 0.138672C262.577 0.138672 288.343 25.9046 288.343 57.6886L230.793 57.6886V0.138672Z" fill="#FBCB1C"/>
<path d="M519.137 0.138672C550.921 0.138672 576.687 25.9046 576.687 57.6886L519.137 57.6886V0.138672Z" fill="#FBCB1C"/>
<path d="M808.071 0.138672C839.855 0.138672 865.621 25.9046 865.621 57.6886L808.071 57.6886V0.138672Z" fill="#FBCB1C"/>
<rect x="173.243" y="57.6895" width="57.5499" height="57.5499" rx="28.7749" transform="rotate(-90 173.243 57.6895)" fill="#1B1B1B"/>
<rect x="461.586" y="57.6895" width="57.5499" height="57.5499" rx="28.7749" transform="rotate(-90 461.586 57.6895)" fill="#1B1B1B"/>
<rect x="750.521" y="57.6895" width="57.5499" height="57.5499" rx="28.7749" transform="rotate(-90 750.521 57.6895)" fill="#1B1B1B"/>
<path d="M115.693 57.6895C115.693 89.4734 141.459 115.239 173.243 115.239L173.243 57.6895L115.693 57.6895Z" fill="#0399FA"/>
<path d="M404.036 57.6895C404.036 89.4734 429.802 115.239 461.586 115.239L461.586 57.6895L404.036 57.6895Z" fill="#0399FA"/>
<path d="M692.973 57.6895C692.973 89.4734 718.739 115.239 750.523 115.239L750.523 57.6895L692.973 57.6895Z" fill="#0399FA"/>
<path d="M980.721 115.101C980.721 83.3167 1006.49 57.5508 1038.27 57.5508H1096.41C1096.41 89.3347 1070.65 115.101 1038.86 115.101H980.721Z" fill="#1B1B1B"/>
<path d="M1269.66 115.101C1269.66 83.3167 1295.42 57.5508 1327.21 57.5508H1385.35C1385.35 89.3347 1359.58 115.101 1327.8 115.101H1269.66Z" fill="#1B1B1B"/>
<path d="M981.315 57.5508C981.315 25.7669 1007.08 0.000899142 1038.87 0.000897753L1038.87 57.5508L981.315 57.5508Z" fill="#FBCB1C"/>
<path d="M1270.25 57.5508C1270.25 25.7669 1296.02 0.000899142 1327.8 0.000897753L1327.8 57.5508L1270.25 57.5508Z" fill="#FBCB1C"/>
<path d="M1096.41 0L1096.41 0.593334C1096.41 32.0496 1070.91 57.5499 1039.46 57.5499L1039.46 -2.48965e-06L1096.41 0Z" fill="#0399FA"/>
<path d="M1385.35 0L1385.35 0.593334C1385.35 32.0496 1359.85 57.5499 1328.39 57.5499L1328.39 -2.48965e-06L1385.35 0Z" fill="#0399FA"/>
<path d="M1096.41 57.5508C1096.41 25.7669 1122.18 0.000902957 1153.96 0.000901568L1153.96 57.5508L1096.41 57.5508Z" fill="#FBCB1C"/>
<path d="M1385.35 57.5508C1385.35 25.7669 1411.12 0.000902957 1442.9 0.000901568L1442.9 57.5508L1385.35 57.5508Z" fill="#FBCB1C"/>
<path d="M865.621 115.1C865.621 83.3157 891.387 57.5497 923.171 57.5497L923.171 115.1L865.621 115.1Z" fill="#FBCB1C"/>
<path d="M1153.96 115.1C1153.96 83.3157 1179.73 57.5497 1211.51 57.5497L1211.51 115.1L1153.96 115.1Z" fill="#FBCB1C"/>
<path d="M1442.9 115.1C1442.9 83.3157 1468.67 57.5497 1500.45 57.5497L1500.45 115.1L1442.9 115.1Z" fill="#FBCB1C"/>
<path d="M923.171 57.5508C954.955 57.5508 980.721 83.3167 980.721 115.101C948.937 115.101 923.171 89.3347 923.171 57.5508Z" fill="#0399FA"/>
<path d="M1211.51 57.5508C1243.3 57.5508 1269.06 83.3167 1269.06 115.101C1237.28 115.101 1211.51 89.3347 1211.51 57.5508Z" fill="#0399FA"/>
<path d="M1500.45 57.5508C1532.23 57.5508 1558 83.3167 1558 115.101C1526.22 115.101 1500.45 89.3347 1500.45 57.5508Z" fill="#0399FA"/>
<path d="M923.171 0C954.955 0 980.721 25.766 980.721 57.5499L923.171 57.5499V0Z" fill="#FBCB1C"/>
<path d="M1211.51 0C1243.3 0 1269.06 25.766 1269.06 57.5499L1211.51 57.5499V0Z" fill="#FBCB1C"/>
<path d="M1500.45 0C1532.23 0 1558 25.766 1558 57.5499L1500.45 57.5499V0Z" fill="#FBCB1C"/>
<rect x="865.621" y="57.5508" width="57.5499" height="57.5499" rx="28.7749" transform="rotate(-90 865.621 57.5508)" fill="#1B1B1B"/>
<rect x="1153.96" y="57.5508" width="57.5499" height="57.5499" rx="28.7749" transform="rotate(-90 1153.96 57.5508)" fill="#1B1B1B"/>
<rect x="1442.9" y="57.5508" width="57.5499" height="57.5499" rx="28.7749" transform="rotate(-90 1442.9 57.5508)" fill="#1B1B1B"/>
<path d="M1096.41 57.5508C1096.41 89.3347 1122.18 115.101 1153.96 115.101L1153.96 57.5508L1096.41 57.5508Z" fill="#0399FA"/>
<path d="M1385.35 57.5508C1385.35 89.3347 1411.12 115.101 1442.9 115.101L1442.9 57.5508L1385.35 57.5508Z" fill="#0399FA"/>
</svg>
