<svg width="719" height="557" viewBox="0 0 719 557" fill="none" xmlns="http://www.w3.org/2000/svg">
<mask id="mask0_252_5936" style="mask-type:luminance" maskUnits="userSpaceOnUse" x="255" y="85" width="40" height="147">
<path d="M255.294 85.3594H294.111V231.205H255.294V85.3594Z" fill="white"/>
</mask>
<g mask="url(#mask0_252_5936)">
<path d="M272.842 101.078V215.62" stroke="white" stroke-width="100" stroke-linecap="square" stroke-linejoin="round"/>
</g>
<mask id="mask1_252_5936" style="mask-type:luminance" maskUnits="userSpaceOnUse" x="255" y="0" width="45" height="147">
<path d="M255.294 0H300V146.411H255.294V0Z" fill="white"/>
</mask>
<g mask="url(#mask1_252_5936)">
<path d="M275.504 11.1033V131.268" stroke="white" stroke-width="100" stroke-linecap="square" stroke-linejoin="round"/>
</g>
<mask id="mask2_252_5936" style="mask-type:luminance" maskUnits="userSpaceOnUse" x="255" y="83" width="170" height="46">
<path d="M255.294 83.8823H424.882V128.592H255.294V83.8823Z" fill="white"/>
</mask>
<g mask="url(#mask2_252_5936)">
<path d="M272.842 106.205H404.526" stroke="white" stroke-width="100" stroke-linecap="square" stroke-linejoin="round"/>
</g>
<mask id="mask3_252_5936" style="mask-type:luminance" maskUnits="userSpaceOnUse" x="255" y="146" width="170" height="194">
<path d="M255.294 146H424.882V339.176H255.294V146Z" fill="white"/>
</mask>
<g mask="url(#mask3_252_5936)">
<path d="M404.526 330.18H357.112C354.35 330.18 351.594 330.078 348.85 329.875C346.106 329.672 343.38 329.372 340.671 328.965C337.963 328.563 335.289 328.06 332.651 327.459C330.007 326.859 327.41 326.161 324.861 325.37C322.311 324.575 319.82 323.692 317.388 322.716C314.95 321.74 312.589 320.68 310.293 319.527C308.002 318.379 305.788 317.147 303.65 315.835C301.519 314.519 299.475 313.133 297.526 311.671C295.571 310.204 293.722 308.672 291.973 307.073C290.219 305.475 288.576 303.814 287.045 302.092C285.514 300.369 284.095 298.598 282.793 296.774C281.492 294.946 280.314 293.078 279.26 291.166C278.2 289.253 277.27 287.306 276.469 285.327C275.668 283.344 275.003 281.339 274.461 279.308C273.925 277.28 273.519 275.236 273.248 273.173C272.977 271.115 272.842 269.048 272.842 266.982V164.319" stroke="white" stroke-width="54.5" stroke-linecap="square" stroke-linejoin="round"/>
</g>
<mask id="mask4_252_5936" style="mask-type:luminance" maskUnits="userSpaceOnUse" x="443" y="0" width="45" height="340">
<path d="M488 0H443.29V339.176H488V0Z" fill="white"/>
</mask>
<g mask="url(#mask4_252_5936)">
<path d="M468.027 11.1248V330.158" stroke="white" stroke-width="120" stroke-linecap="square" stroke-linejoin="round"/>
</g>
<path d="M163.984 391.3V392.9H144.684V454.1H137.484V392.9H118.184V391.3H163.984ZM218.731 454.1L207.831 428.9H183.431L172.131 454.1H169.931L198.431 390.1H198.931L226.431 454.1H218.731ZM184.131 427.2H207.131L195.831 400.9L184.131 427.2ZM249.505 449.4C253.005 452.1 257.805 455 266.405 455C274.405 455 281.805 450.2 281.805 440.5C281.805 420.7 249.805 429.1 249.805 406.7C249.805 394.2 260.905 389.4 268.805 389.4C276.805 389.4 282.805 393.1 282.805 393.1L282.905 395.2C282.905 395.2 277.405 391.1 268.905 391.1C260.305 391.1 255.405 396.9 255.405 404C255.405 422.2 287.505 415.6 287.505 438C287.505 449.1 277.205 456.6 266.405 456.6C255.605 456.6 249.505 451.7 249.505 451.7V449.4ZM312.313 454.1V391.3H319.413V454.1H312.313ZM327.213 417.8L358.213 454.1H348.813L321.113 421.7L350.713 391.3H353.013L327.213 417.8ZM419.012 391.3H426.212V454.1H419.012V422.1H389.612V454.1H382.512V391.3H389.612V420.5H419.012V391.3ZM453.223 454.1V391.3H460.323V454.1H453.223ZM540.161 391.3H542.461L513.961 455.4H513.361L485.961 391.3H493.661L516.461 444.6L540.161 391.3ZM598.445 392.9H573.745V420.5H595.745V422.1H573.745V452.5H598.445V454.1H566.645V391.3H566.945H598.445V392.9Z" fill="white"/>
<path d="M143.945 515.768V518H126.773V492.44H143.621V494.672H129.293V503.888H141.785V506.012H129.293V515.768H143.945ZM176.831 518H174.383V507.524C174.383 505.34 174.035 503.732 173.339 502.7C172.643 501.668 171.611 501.152 170.243 501.152C168.827 501.152 167.555 501.656 166.427 502.664C165.323 503.672 164.543 504.968 164.087 506.552V518H161.639V507.524C161.639 505.316 161.303 503.708 160.631 502.7C159.959 501.668 158.927 501.152 157.535 501.152C156.143 501.152 154.883 501.644 153.755 502.628C152.627 503.612 151.835 504.908 151.379 506.516V518H148.931V499.244H151.163V503.492C151.955 502.028 152.963 500.9 154.187 500.108C155.435 499.316 156.815 498.92 158.327 498.92C159.887 498.92 161.147 499.364 162.107 500.252C163.067 501.14 163.655 502.304 163.871 503.744C164.735 502.16 165.767 500.96 166.967 500.144C168.191 499.328 169.571 498.92 171.107 498.92C172.163 498.92 173.051 499.112 173.771 499.496C174.515 499.88 175.103 500.432 175.535 501.152C175.991 501.848 176.315 502.7 176.507 503.708C176.723 504.692 176.831 505.796 176.831 507.02V518ZM192.489 518.36C190.929 518.36 189.525 517.952 188.277 517.136C187.053 516.32 186.081 515.312 185.361 514.112V525.668H182.913V499.244H185.109V502.88C185.853 501.704 186.849 500.756 188.097 500.036C189.345 499.292 190.677 498.92 192.093 498.92C193.389 498.92 194.577 499.196 195.657 499.748C196.737 500.276 197.673 500.996 198.465 501.908C199.257 502.82 199.869 503.864 200.301 505.04C200.757 506.192 200.985 507.392 200.985 508.64C200.985 510.392 200.625 512.012 199.905 513.5C199.209 514.964 198.225 516.14 196.953 517.028C195.681 517.916 194.193 518.36 192.489 518.36ZM191.805 516.2C192.837 516.2 193.761 515.996 194.577 515.588C195.393 515.156 196.089 514.58 196.665 513.86C197.265 513.14 197.721 512.336 198.033 511.448C198.345 510.536 198.501 509.6 198.501 508.64C198.501 507.632 198.321 506.672 197.961 505.76C197.625 504.848 197.133 504.044 196.485 503.348C195.837 502.652 195.093 502.1 194.253 501.692C193.413 501.284 192.501 501.08 191.517 501.08C190.893 501.08 190.245 501.2 189.573 501.44C188.901 501.68 188.253 502.028 187.629 502.484C187.029 502.916 186.525 503.408 186.117 503.96C185.709 504.512 185.457 505.1 185.361 505.724V511.484C185.745 512.372 186.261 513.176 186.909 513.896C187.557 514.592 188.301 515.156 189.141 515.588C190.005 515.996 190.893 516.2 191.805 516.2ZM214.023 518.36C212.679 518.36 211.431 518.108 210.279 517.604C209.151 517.076 208.167 516.368 207.327 515.48C206.511 514.568 205.875 513.536 205.419 512.384C204.963 511.208 204.735 509.972 204.735 508.676C204.735 507.332 204.963 506.084 205.419 504.932C205.875 503.756 206.523 502.724 207.363 501.836C208.203 500.924 209.187 500.216 210.315 499.712C211.467 499.184 212.715 498.92 214.059 498.92C215.403 498.92 216.639 499.184 217.767 499.712C218.895 500.216 219.879 500.924 220.719 501.836C221.559 502.724 222.207 503.756 222.663 504.932C223.119 506.084 223.347 507.332 223.347 508.676C223.347 509.972 223.119 511.208 222.663 512.384C222.207 513.536 221.559 514.568 220.719 515.48C219.903 516.368 218.919 517.076 217.767 517.604C216.639 518.108 215.391 518.36 214.023 518.36ZM207.219 508.712C207.219 510.104 207.519 511.376 208.119 512.528C208.743 513.656 209.571 514.556 210.603 515.228C211.635 515.876 212.775 516.2 214.023 516.2C215.271 516.2 216.411 515.864 217.443 515.192C218.475 514.52 219.303 513.608 219.927 512.456C220.551 511.28 220.863 510.008 220.863 508.64C220.863 507.248 220.551 505.976 219.927 504.824C219.303 503.672 218.475 502.76 217.443 502.088C216.411 501.416 215.271 501.08 214.023 501.08C212.775 501.08 211.635 501.428 210.603 502.124C209.595 502.82 208.779 503.744 208.155 504.896C207.531 506.024 207.219 507.296 207.219 508.712ZM251.325 499.244H253.737L245.673 518H243.549L239.625 508.676L235.737 518H233.613L225.549 499.244H227.925L234.765 515.48L238.221 507.02L235.053 499.28H237.249L239.625 505.364L242.037 499.28H244.197L241.065 507.02L244.521 515.48L251.325 499.244ZM265.361 518.36C264.017 518.36 262.769 518.108 261.617 517.604C260.465 517.076 259.469 516.368 258.629 515.48C257.789 514.568 257.129 513.524 256.649 512.348C256.193 511.172 255.965 509.912 255.965 508.568C255.965 506.816 256.361 505.208 257.153 503.744C257.969 502.28 259.085 501.116 260.501 500.252C261.917 499.364 263.525 498.92 265.325 498.92C267.173 498.92 268.781 499.364 270.149 500.252C271.541 501.14 272.633 502.316 273.425 503.78C274.217 505.22 274.613 506.804 274.613 508.532C274.613 508.724 274.613 508.916 274.613 509.108C274.613 509.276 274.601 509.408 274.577 509.504H258.521C258.641 510.848 259.013 512.048 259.637 513.104C260.285 514.136 261.113 514.964 262.121 515.588C263.153 516.188 264.269 516.488 265.469 516.488C266.693 516.488 267.845 516.176 268.925 515.552C270.029 514.928 270.797 514.112 271.229 513.104L273.353 513.68C272.969 514.568 272.381 515.372 271.589 516.092C270.797 516.812 269.861 517.376 268.781 517.784C267.725 518.168 266.585 518.36 265.361 518.36ZM258.449 507.74H272.309C272.213 506.372 271.841 505.172 271.193 504.14C270.569 503.108 269.741 502.304 268.709 501.728C267.701 501.128 266.585 500.828 265.361 500.828C264.137 500.828 263.021 501.128 262.013 501.728C261.005 502.304 260.177 503.12 259.529 504.176C258.905 505.208 258.545 506.396 258.449 507.74ZM288.65 501.404C287.018 501.452 285.578 501.908 284.33 502.772C283.106 503.636 282.242 504.824 281.738 506.336V518H279.29V499.244H281.594V503.744C282.242 502.424 283.094 501.356 284.15 500.54C285.23 499.724 286.37 499.268 287.57 499.172C287.81 499.148 288.014 499.136 288.182 499.136C288.374 499.136 288.53 499.148 288.65 499.172V501.404ZM292.811 518V499.244H295.259V518H292.811ZM292.811 495.32V491.72H295.259V495.32H292.811ZM317.319 518H314.871V507.524C314.871 505.316 314.547 503.708 313.899 502.7C313.251 501.668 312.231 501.152 310.839 501.152C309.879 501.152 308.931 501.392 307.995 501.872C307.059 502.328 306.231 502.964 305.511 503.78C304.815 504.572 304.311 505.484 303.999 506.516V518H301.551V499.244H303.783V503.492C304.287 502.58 304.947 501.788 305.763 501.116C306.579 500.42 307.503 499.88 308.535 499.496C309.567 499.112 310.635 498.92 311.739 498.92C312.771 498.92 313.647 499.112 314.367 499.496C315.087 499.88 315.663 500.432 316.095 501.152C316.527 501.848 316.839 502.7 317.031 503.708C317.223 504.692 317.319 505.796 317.319 507.02V518ZM330.963 518.252C329.691 518.252 328.515 517.988 327.435 517.46C326.355 516.932 325.419 516.224 324.627 515.336C323.859 514.424 323.259 513.392 322.827 512.24C322.395 511.088 322.179 509.9 322.179 508.676C322.179 507.356 322.383 506.12 322.791 504.968C323.223 503.792 323.823 502.748 324.591 501.836C325.383 500.924 326.307 500.216 327.363 499.712C328.419 499.184 329.595 498.92 330.891 498.92C332.499 498.92 333.891 499.328 335.067 500.144C336.267 500.96 337.275 501.968 338.091 503.168V499.244H340.287V518.072C340.287 519.8 339.867 521.252 339.027 522.428C338.211 523.628 337.095 524.528 335.679 525.128C334.287 525.728 332.763 526.028 331.107 526.028C328.971 526.028 327.243 525.644 325.923 524.876C324.603 524.108 323.523 523.076 322.683 521.78L324.195 520.592C324.939 521.768 325.923 522.644 327.147 523.22C328.395 523.796 329.715 524.084 331.107 524.084C332.331 524.084 333.447 523.856 334.455 523.4C335.487 522.968 336.303 522.308 336.903 521.42C337.527 520.532 337.839 519.416 337.839 518.072V514.364C337.119 515.54 336.135 516.488 334.887 517.208C333.639 517.904 332.331 518.252 330.963 518.252ZM331.647 516.2C332.391 516.2 333.099 516.068 333.771 515.804C334.467 515.54 335.103 515.192 335.679 514.76C336.255 514.304 336.735 513.8 337.119 513.248C337.503 512.696 337.743 512.132 337.839 511.556V505.76C337.479 504.848 336.963 504.044 336.291 503.348C335.619 502.628 334.851 502.076 333.987 501.692C333.147 501.284 332.271 501.08 331.359 501.08C330.303 501.08 329.355 501.308 328.515 501.764C327.699 502.196 327.003 502.784 326.427 503.528C325.875 504.248 325.443 505.064 325.131 505.976C324.819 506.888 324.663 507.8 324.663 508.712C324.663 509.72 324.843 510.68 325.203 511.592C325.563 512.48 326.055 513.284 326.679 514.004C327.327 514.7 328.071 515.24 328.911 515.624C329.775 516.008 330.687 516.2 331.647 516.2ZM356.051 492.44L364.403 506.192L372.827 492.44H375.563L365.663 508.496V518H363.143V508.424L353.279 492.44H356.051ZM384.44 518.36C383.096 518.36 381.848 518.108 380.696 517.604C379.568 517.076 378.584 516.368 377.744 515.48C376.928 514.568 376.292 513.536 375.836 512.384C375.38 511.208 375.152 509.972 375.152 508.676C375.152 507.332 375.38 506.084 375.836 504.932C376.292 503.756 376.94 502.724 377.78 501.836C378.62 500.924 379.604 500.216 380.732 499.712C381.884 499.184 383.132 498.92 384.476 498.92C385.82 498.92 387.056 499.184 388.184 499.712C389.312 500.216 390.296 500.924 391.136 501.836C391.976 502.724 392.624 503.756 393.08 504.932C393.536 506.084 393.764 507.332 393.764 508.676C393.764 509.972 393.536 511.208 393.08 512.384C392.624 513.536 391.976 514.568 391.136 515.48C390.32 516.368 389.336 517.076 388.184 517.604C387.056 518.108 385.808 518.36 384.44 518.36ZM377.636 508.712C377.636 510.104 377.936 511.376 378.536 512.528C379.16 513.656 379.988 514.556 381.02 515.228C382.052 515.876 383.192 516.2 384.44 516.2C385.688 516.2 386.828 515.864 387.86 515.192C388.892 514.52 389.72 513.608 390.344 512.456C390.968 511.28 391.28 510.008 391.28 508.64C391.28 507.248 390.968 505.976 390.344 504.824C389.72 503.672 388.892 502.76 387.86 502.088C386.828 501.416 385.688 501.08 384.44 501.08C383.192 501.08 382.052 501.428 381.02 502.124C380.012 502.82 379.196 503.744 378.572 504.896C377.948 506.024 377.636 507.296 377.636 508.712ZM398.578 510.26V499.244H401.026V509.828C401.026 511.964 401.386 513.56 402.106 514.616C402.85 515.672 403.942 516.2 405.382 516.2C406.342 516.2 407.266 515.996 408.154 515.588C409.066 515.156 409.87 514.556 410.566 513.788C411.262 512.996 411.79 512.084 412.15 511.052V499.244H414.598V515.048C414.598 515.384 414.67 515.636 414.814 515.804C414.958 515.948 415.174 516.032 415.462 516.056V518C415.174 518.024 414.946 518.036 414.778 518.036C414.61 518.06 414.454 518.072 414.31 518.072C413.83 518.024 413.41 517.832 413.05 517.496C412.714 517.16 412.534 516.752 412.51 516.272L412.438 513.752C411.622 515.192 410.506 516.32 409.09 517.136C407.698 517.952 406.186 518.36 404.554 518.36C402.586 518.36 401.098 517.676 400.09 516.308C399.082 514.94 398.578 512.924 398.578 510.26ZM430.393 501.404C428.761 501.452 427.321 501.908 426.073 502.772C424.849 503.636 423.985 504.824 423.481 506.336V518H421.033V499.244H423.337V503.744C423.985 502.424 424.837 501.356 425.893 500.54C426.973 499.724 428.113 499.268 429.313 499.172C429.553 499.148 429.757 499.136 429.925 499.136C430.117 499.136 430.273 499.148 430.393 499.172V501.404ZM463.514 511.412C463.514 512.684 463.19 513.824 462.542 514.832C461.894 515.816 461.018 516.596 459.914 517.172C458.834 517.724 457.646 518 456.35 518H444.29V492.44H456.602C457.802 492.44 458.834 492.764 459.698 493.412C460.586 494.036 461.258 494.852 461.714 495.86C462.194 496.844 462.434 497.876 462.434 498.956C462.434 500.228 462.11 501.404 461.462 502.484C460.814 503.564 459.914 504.368 458.762 504.896C460.226 505.328 461.378 506.132 462.218 507.308C463.082 508.484 463.514 509.852 463.514 511.412ZM460.994 510.98C460.994 510.116 460.802 509.324 460.418 508.604C460.034 507.86 459.506 507.26 458.834 506.804C458.186 506.348 457.442 506.12 456.602 506.12H446.81V515.804H456.35C457.214 515.804 457.994 515.576 458.69 515.12C459.386 514.664 459.938 514.076 460.346 513.356C460.778 512.612 460.994 511.82 460.994 510.98ZM446.81 494.636V504.068H455.594C456.434 504.068 457.178 503.852 457.826 503.42C458.474 502.964 458.99 502.376 459.374 501.656C459.758 500.936 459.95 500.168 459.95 499.352C459.95 498.488 459.77 497.708 459.41 497.012C459.05 496.292 458.558 495.716 457.934 495.284C457.31 494.852 456.602 494.636 455.81 494.636H446.81ZM468.483 510.26V499.244H470.931V509.828C470.931 511.964 471.291 513.56 472.011 514.616C472.755 515.672 473.847 516.2 475.287 516.2C476.247 516.2 477.171 515.996 478.059 515.588C478.971 515.156 479.775 514.556 480.471 513.788C481.167 512.996 481.695 512.084 482.055 511.052V499.244H484.503V515.048C484.503 515.384 484.575 515.636 484.719 515.804C484.863 515.948 485.079 516.032 485.367 516.056V518C485.079 518.024 484.851 518.036 484.683 518.036C484.515 518.06 484.359 518.072 484.215 518.072C483.735 518.024 483.315 517.832 482.955 517.496C482.619 517.16 482.439 516.752 482.415 516.272L482.343 513.752C481.527 515.192 480.411 516.32 478.995 517.136C477.603 517.952 476.091 518.36 474.459 518.36C472.491 518.36 471.003 517.676 469.995 516.308C468.987 514.94 468.483 512.924 468.483 510.26ZM497.094 518.36C495.558 518.36 494.13 518.108 492.81 517.604C491.49 517.1 490.35 516.332 489.39 515.3L490.398 513.572C491.454 514.556 492.51 515.276 493.566 515.732C494.646 516.164 495.786 516.38 496.986 516.38C498.45 516.38 499.638 516.092 500.55 515.516C501.462 514.916 501.918 514.064 501.918 512.96C501.918 512.216 501.69 511.652 501.234 511.268C500.802 510.86 500.166 510.536 499.326 510.296C498.51 510.032 497.526 509.756 496.374 509.468C495.078 509.108 493.986 508.736 493.098 508.352C492.234 507.944 491.574 507.44 491.118 506.84C490.686 506.216 490.47 505.412 490.47 504.428C490.47 503.204 490.77 502.196 491.37 501.404C491.994 500.588 492.834 499.976 493.89 499.568C494.97 499.136 496.17 498.92 497.49 498.92C498.93 498.92 500.202 499.148 501.306 499.604C502.41 500.06 503.31 500.696 504.006 501.512L502.818 503.168C502.146 502.4 501.342 501.836 500.406 501.476C499.494 501.092 498.474 500.9 497.346 500.9C496.578 500.9 495.846 501.008 495.15 501.224C494.454 501.416 493.878 501.752 493.422 502.232C492.99 502.688 492.774 503.324 492.774 504.14C492.774 504.812 492.942 505.34 493.278 505.724C493.614 506.084 494.118 506.396 494.79 506.66C495.462 506.9 496.29 507.164 497.274 507.452C498.69 507.836 499.926 508.232 500.982 508.64C502.038 509.024 502.854 509.528 503.43 510.152C504.006 510.776 504.294 511.652 504.294 512.78C504.294 514.532 503.634 515.9 502.314 516.884C500.994 517.868 499.254 518.36 497.094 518.36ZM509.24 518V499.244H511.688V518H509.24ZM509.24 495.32V491.72H511.688V495.32H509.24ZM533.748 518H531.3V507.524C531.3 505.316 530.976 503.708 530.328 502.7C529.68 501.668 528.66 501.152 527.268 501.152C526.308 501.152 525.36 501.392 524.424 501.872C523.488 502.328 522.66 502.964 521.94 503.78C521.244 504.572 520.74 505.484 520.428 506.516V518H517.98V499.244H520.212V503.492C520.716 502.58 521.376 501.788 522.192 501.116C523.008 500.42 523.932 499.88 524.964 499.496C525.996 499.112 527.064 498.92 528.168 498.92C529.2 498.92 530.076 499.112 530.796 499.496C531.516 499.88 532.092 500.432 532.524 501.152C532.956 501.848 533.268 502.7 533.46 503.708C533.652 504.692 533.748 505.796 533.748 507.02V518ZM547.968 518.36C546.624 518.36 545.376 518.108 544.224 517.604C543.072 517.076 542.076 516.368 541.236 515.48C540.396 514.568 539.736 513.524 539.256 512.348C538.8 511.172 538.572 509.912 538.572 508.568C538.572 506.816 538.968 505.208 539.76 503.744C540.576 502.28 541.692 501.116 543.108 500.252C544.524 499.364 546.132 498.92 547.932 498.92C549.78 498.92 551.388 499.364 552.756 500.252C554.148 501.14 555.24 502.316 556.032 503.78C556.824 505.22 557.22 506.804 557.22 508.532C557.22 508.724 557.22 508.916 557.22 509.108C557.22 509.276 557.208 509.408 557.184 509.504H541.128C541.248 510.848 541.62 512.048 542.244 513.104C542.892 514.136 543.72 514.964 544.728 515.588C545.76 516.188 546.876 516.488 548.076 516.488C549.3 516.488 550.452 516.176 551.532 515.552C552.636 514.928 553.404 514.112 553.836 513.104L555.96 513.68C555.576 514.568 554.988 515.372 554.196 516.092C553.404 516.812 552.468 517.376 551.388 517.784C550.332 518.168 549.192 518.36 547.968 518.36ZM541.056 507.74H554.916C554.82 506.372 554.448 505.172 553.8 504.14C553.176 503.108 552.348 502.304 551.316 501.728C550.308 501.128 549.192 500.828 547.968 500.828C546.744 500.828 545.628 501.128 544.62 501.728C543.612 502.304 542.784 503.12 542.136 504.176C541.512 505.208 541.152 506.396 541.056 507.74ZM568.053 518.36C566.517 518.36 565.089 518.108 563.769 517.604C562.449 517.1 561.309 516.332 560.349 515.3L561.357 513.572C562.413 514.556 563.469 515.276 564.525 515.732C565.605 516.164 566.745 516.38 567.945 516.38C569.409 516.38 570.597 516.092 571.509 515.516C572.421 514.916 572.877 514.064 572.877 512.96C572.877 512.216 572.649 511.652 572.193 511.268C571.761 510.86 571.125 510.536 570.285 510.296C569.469 510.032 568.485 509.756 567.333 509.468C566.037 509.108 564.945 508.736 564.057 508.352C563.193 507.944 562.533 507.44 562.077 506.84C561.645 506.216 561.429 505.412 561.429 504.428C561.429 503.204 561.729 502.196 562.329 501.404C562.953 500.588 563.793 499.976 564.849 499.568C565.929 499.136 567.129 498.92 568.449 498.92C569.889 498.92 571.161 499.148 572.265 499.604C573.369 500.06 574.269 500.696 574.965 501.512L573.777 503.168C573.105 502.4 572.301 501.836 571.365 501.476C570.453 501.092 569.433 500.9 568.305 500.9C567.537 500.9 566.805 501.008 566.109 501.224C565.413 501.416 564.837 501.752 564.381 502.232C563.949 502.688 563.733 503.324 563.733 504.14C563.733 504.812 563.901 505.34 564.237 505.724C564.573 506.084 565.077 506.396 565.749 506.66C566.421 506.9 567.249 507.164 568.233 507.452C569.649 507.836 570.885 508.232 571.941 508.64C572.997 509.024 573.813 509.528 574.389 510.152C574.965 510.776 575.253 511.652 575.253 512.78C575.253 514.532 574.593 515.9 573.273 516.884C571.953 517.868 570.213 518.36 568.053 518.36ZM586.355 518.36C584.819 518.36 583.391 518.108 582.071 517.604C580.751 517.1 579.611 516.332 578.651 515.3L579.659 513.572C580.715 514.556 581.771 515.276 582.827 515.732C583.907 516.164 585.047 516.38 586.247 516.38C587.711 516.38 588.899 516.092 589.811 515.516C590.723 514.916 591.179 514.064 591.179 512.96C591.179 512.216 590.951 511.652 590.495 511.268C590.063 510.86 589.427 510.536 588.587 510.296C587.771 510.032 586.787 509.756 585.635 509.468C584.339 509.108 583.247 508.736 582.359 508.352C581.495 507.944 580.835 507.44 580.379 506.84C579.947 506.216 579.731 505.412 579.731 504.428C579.731 503.204 580.031 502.196 580.631 501.404C581.255 500.588 582.095 499.976 583.151 499.568C584.231 499.136 585.431 498.92 586.751 498.92C588.191 498.92 589.463 499.148 590.567 499.604C591.671 500.06 592.571 500.696 593.267 501.512L592.079 503.168C591.407 502.4 590.603 501.836 589.667 501.476C588.755 501.092 587.735 500.9 586.607 500.9C585.839 500.9 585.107 501.008 584.411 501.224C583.715 501.416 583.139 501.752 582.683 502.232C582.251 502.688 582.035 503.324 582.035 504.14C582.035 504.812 582.203 505.34 582.539 505.724C582.875 506.084 583.379 506.396 584.051 506.66C584.723 506.9 585.551 507.164 586.535 507.452C587.951 507.836 589.187 508.232 590.243 508.64C591.299 509.024 592.115 509.528 592.691 510.152C593.267 510.776 593.555 511.652 593.555 512.78C593.555 514.532 592.895 515.9 591.575 516.884C590.255 517.868 588.515 518.36 586.355 518.36Z" fill="white"/>
</svg>
