<svg width="41" height="41" viewBox="0 0 41 41" fill="none" xmlns="http://www.w3.org/2000/svg">
<rect width="40.3226" height="40.3226" rx="8" fill="white"/>
<path d="M25.3186 8.82355L15.0022 8.81323C13.8674 8.81323 12.9492 9.74171 12.9492 10.8765V29.4461C12.9492 30.5809 13.8674 31.5094 15.0022 31.5094H25.3186C26.4535 31.5094 27.3819 30.5809 27.3819 29.4461V10.8765C27.3819 9.74171 26.4535 8.82355 25.3186 8.82355ZM25.3186 27.3828H15.0022V12.9398H25.3186V27.3828ZM20.9857 21.4199V23.2253L24.287 20.1407L20.9857 17.0664V18.8202C17.7773 19.2638 16.4981 21.4612 16.0338 23.6689C17.179 22.1215 18.6955 21.4199 20.9857 21.4199Z" fill="black"/>
</svg>
