<svg width="45" height="44" viewBox="0 0 45 44" fill="none" xmlns="http://www.w3.org/2000/svg">
<path id="Vector" d="M24.75 15.4H20.25V11H24.75M24.75 33H20.25V19.8H24.75M22.5 0C19.5453 0 16.6194 0.569047 13.8896 1.67465C11.1598 2.78025 8.67942 4.40076 6.5901 6.44365C2.37053 10.5695 0 16.1652 0 22C0 27.8348 2.37053 33.4305 6.5901 37.5564C8.67942 39.5992 11.1598 41.2197 13.8896 42.3254C16.6194 43.431 19.5453 44 22.5 44C28.4674 44 34.1903 41.6822 38.4099 37.5564C42.6295 33.4305 45 27.8348 45 22C45 19.1109 44.418 16.2501 43.2873 13.581C42.1566 10.9118 40.4992 8.48654 38.4099 6.44365C36.3206 4.40076 33.8402 2.78025 31.1104 1.67465C28.3806 0.569047 25.4547 0 22.5 0Z" fill="#005389"/>
</svg>
