<svg width="44" height="44" viewBox="0 0 44 44" fill="none" xmlns="http://www.w3.org/2000/svg">
<path fill-rule="evenodd" clip-rule="evenodd" d="M44 22C44 34.1506 34.1506 44 22 44C18.48 44 15.1536 43.1728 12.2056 41.7032C11.4269 41.3007 10.5279 41.1967 9.67782 41.4106L4.78062 42.7218C4.2959 42.8511 3.78568 42.8507 3.30118 42.7205C2.81668 42.5904 2.37495 42.335 2.02032 41.9802C1.66569 41.6253 1.41064 41.1834 1.28077 40.6988C1.1509 40.2143 1.15078 39.704 1.28043 39.2194L2.58943 34.3222C2.80233 33.4725 2.69749 32.5744 2.29463 31.7966C0.780217 28.7533 -0.00535768 25.3993 2.75008e-05 22C2.75008e-05 9.8494 9.84942 0 22 0C34.1506 0 44 9.8494 44 22ZM22 11.55C22.4376 11.55 22.8573 11.7238 23.1667 12.0333C23.4762 12.3427 23.65 12.7624 23.65 13.2V30.8C23.65 31.2376 23.4762 31.6573 23.1667 31.9667C22.8573 32.2762 22.4376 32.45 22 32.45C21.5624 32.45 21.1427 32.2762 20.8333 31.9667C20.5239 31.6573 20.35 31.2376 20.35 30.8V13.2C20.35 12.7624 20.5239 12.3427 20.8333 12.0333C21.1427 11.7238 21.5624 11.55 22 11.55ZM14.85 17.6C14.85 17.1624 14.6762 16.7427 14.3667 16.4333C14.0573 16.1238 13.6376 15.95 13.2 15.95C12.7624 15.95 12.3427 16.1238 12.0333 16.4333C11.7239 16.7427 11.55 17.1624 11.55 17.6V26.4C11.55 26.8376 11.7239 27.2573 12.0333 27.5667C12.3427 27.8762 12.7624 28.05 13.2 28.05C13.6376 28.05 14.0573 27.8762 14.3667 27.5667C14.6762 27.2573 14.85 26.8376 14.85 26.4V17.6ZM30.8 15.95C31.2376 15.95 31.6573 16.1238 31.9667 16.4333C32.2762 16.7427 32.45 17.1624 32.45 17.6V26.4C32.45 26.8376 32.2762 27.2573 31.9667 27.5667C31.6573 27.8762 31.2376 28.05 30.8 28.05C30.3624 28.05 29.9427 27.8762 29.6333 27.5667C29.3238 27.2573 29.15 26.8376 29.15 26.4V17.6C29.15 17.1624 29.3238 16.7427 29.6333 16.4333C29.9427 16.1238 30.3624 15.95 30.8 15.95Z" fill="white"/>
</svg>
