<svg width="43" height="44" viewBox="0 0 43 44" fill="none" xmlns="http://www.w3.org/2000/svg">
<path id="Vector" d="M18.0187 1.26119C18.9905 0.44703 20.2245 0 21.5 0C22.7755 0 24.0095 0.44703 24.9813 1.26119L41.1063 14.7675C41.6999 15.2647 42.1766 15.8832 42.5036 16.58C42.8306 17.2768 43 18.0353 43 18.803V39.9254C43 41.0061 42.5644 42.0425 41.789 42.8066C41.0136 43.5707 39.962 44 38.8654 44H32.25C31.1534 44 30.1018 43.5707 29.3264 42.8066C28.551 42.0425 28.1154 41.0061 28.1154 39.9254V29.3316C28.1154 28.4696 27.7689 27.6427 27.1519 27.0319C26.5348 26.421 25.6973 26.0758 24.8226 26.072H18.1758C17.3014 26.0763 16.4643 26.4216 15.8476 27.0324C15.2308 27.6433 14.8846 28.4699 14.8846 29.3316V39.9254C14.8846 40.4605 14.7777 40.9904 14.5699 41.4847C14.3621 41.9791 14.0575 42.4282 13.6736 42.8066C13.2897 43.1849 12.8339 43.4851 12.3322 43.6898C11.8306 43.8946 11.293 44 10.75 44H4.13462C3.03805 44 1.98639 43.5707 1.211 42.8066C0.43561 42.0425 0 41.0061 0 39.9254V18.803C4.35143e-05 18.0353 0.169417 17.2768 0.496392 16.58C0.823366 15.8832 1.30013 15.2647 1.89365 14.7675L18.0187 1.26119Z" fill="white"/>
</svg>
