<svg width="44" height="44" viewBox="0 0 44 44" fill="none" xmlns="http://www.w3.org/2000/svg">
<path id="Vector" d="M14.6667 18.3333V14.6667H29.3333V18.3333H14.6667ZM0 9.16667C0 6.73552 0.965771 4.40394 2.68485 2.68485C4.40394 0.965771 6.73552 0 9.16667 0H34.8333C37.2645 0 39.5961 0.965771 41.3151 2.68485C43.0342 4.40394 44 6.73552 44 9.16667V34.8333C44 37.2645 43.0342 39.5961 41.3151 41.3151C39.5961 43.0342 37.2645 44 34.8333 44H9.16667C6.73552 44 4.40394 43.0342 2.68485 41.3151C0.965771 39.5961 0 37.2645 0 34.8333V9.16667ZM12.8333 11C12.3471 11 11.8808 11.1932 11.537 11.537C11.1932 11.8808 11 12.3471 11 12.8333V20.1667C11 20.6529 11.1932 21.1192 11.537 21.463C11.8808 21.8068 12.3471 22 12.8333 22H31.1667C31.6529 22 32.1192 21.8068 32.463 21.463C32.8068 21.1192 33 20.6529 33 20.1667V12.8333C33 12.3471 32.8068 11.8808 32.463 11.537C32.1192 11.1932 31.6529 11 31.1667 11H12.8333Z" fill="white"/>
</svg>
