<svg width="50" height="44" viewBox="0 0 50 44" fill="none" xmlns="http://www.w3.org/2000/svg">
<path id="Vector" d="M29.936 18.2284C29.4996 17.7967 28.9078 17.5542 28.2908 17.5542C27.6738 17.5542 27.0821 17.7967 26.6457 18.2284L25.0006 19.8565C24.1276 20.7201 22.9438 21.2051 21.7095 21.2049C20.4752 21.2047 19.2915 20.7192 18.4189 19.8553C17.5463 18.9914 17.0562 17.8199 17.0564 16.5984C17.0566 15.3769 17.5471 14.2055 18.4201 13.342L31.5206 0.372778C34.6222 -0.32536 37.8672 -0.03804 40.7943 1.19388C43.7215 2.42581 46.1816 4.53963 47.825 7.23477C49.4683 9.92991 50.2113 13.0692 49.9482 16.2062C49.685 19.3432 48.4292 22.3183 46.3593 24.7084L41.4542 29.6248L29.936 18.2284ZM4.43302 4.3888C6.84082 2.00631 9.9902 0.497079 13.372 0.105118C16.7538 -0.286842 20.1703 0.461377 23.0692 2.22881L15.1275 10.0858C13.3954 11.7821 12.4046 14.0829 12.3678 16.4941C12.331 18.9054 13.2513 21.2347 14.9309 22.9819C16.6105 24.7291 18.9154 25.7548 21.3508 25.8386C23.7861 25.9225 26.1575 25.0578 27.9558 23.4304L28.2908 23.1126L38.1639 32.8832L28.2908 42.6516C27.4181 43.515 26.2346 44 25.0006 44C23.7666 44 22.5831 43.515 21.7103 42.6516L4.4307 25.5558C3.02601 24.1659 1.91173 22.5158 1.15151 20.6996C0.391284 18.8835 0 16.937 0 14.9712C0 13.0054 0.391284 11.0588 1.15151 9.24271C1.91173 7.42658 3.02601 5.77643 4.4307 4.3865L4.43302 4.3888Z" fill="#005389"/>
</svg>
