<svg width="57" height="57" viewBox="0 0 57 57" fill="none" xmlns="http://www.w3.org/2000/svg">
<rect width="57" height="57" rx="8" fill="#FBCB1C"/>
<g clip-path="url(#clip0_102_911)">
<path d="M35.7901 12.473L21.2068 12.4584C19.6026 12.4584 18.3047 13.7709 18.3047 15.375V41.625C18.3047 43.2292 19.6026 44.5417 21.2068 44.5417H35.7901C37.3943 44.5417 38.7068 43.2292 38.7068 41.625V15.375C38.7068 13.7709 37.3943 12.473 35.7901 12.473ZM35.7901 38.7084H21.2068V18.2917H35.7901V38.7084ZM29.6651 30.2792V32.8313L34.3318 28.4709L29.6651 24.125V26.6042C25.1297 27.2313 23.3214 30.3375 22.6651 33.4584C24.2839 31.2709 26.4276 30.2792 29.6651 30.2792Z" fill="white"/>
</g>
<defs>
<clipPath id="clip0_102_911">
<rect width="35" height="35" fill="white" transform="translate(11 11)"/>
</clipPath>
</defs>
</svg>
